<mxfile host="app.diagrams.net" agent="Mozilla/5.0 (Windows NT 10.0; Win64; x64) AppleWebKit/537.36 (KHTML, like Gecko) Chrome/135.0.0.0 Safari/537.36" version="26.2.8">
  <diagram name="Pagina-1" id="D_wtHE_bYwQYSsQthXf6">
    <mxGraphModel dx="788" dy="423" grid="1" gridSize="10" guides="1" tooltips="1" connect="1" arrows="1" fold="1" page="1" pageScale="1" pageWidth="827" pageHeight="1169" math="0" shadow="0">
      <root>
        <mxCell id="0" />
        <mxCell id="1" parent="0" />
        <mxCell id="K5195V57twpSrOtmKXnl-7" style="edgeStyle=orthogonalEdgeStyle;rounded=0;orthogonalLoop=1;jettySize=auto;html=1;exitX=0.5;exitY=1;exitDx=0;exitDy=0;entryX=0.5;entryY=0;entryDx=0;entryDy=0;" parent="1" source="blKXPEG1kJmycwjb-spy-1" target="blKXPEG1kJmycwjb-spy-8" edge="1">
          <mxGeometry relative="1" as="geometry" />
        </mxCell>
        <mxCell id="blKXPEG1kJmycwjb-spy-1" value="" style="image;html=1;image=img/lib/clip_art/networking/Wireless_Router_128x128.png" parent="1" vertex="1">
          <mxGeometry x="350" y="160" width="100" height="90" as="geometry" />
        </mxCell>
        <mxCell id="blKXPEG1kJmycwjb-spy-37" style="edgeStyle=orthogonalEdgeStyle;rounded=0;orthogonalLoop=1;jettySize=auto;html=1;exitX=0.5;exitY=1;exitDx=0;exitDy=0;" parent="1" source="blKXPEG1kJmycwjb-spy-4" target="blKXPEG1kJmycwjb-spy-21" edge="1">
          <mxGeometry relative="1" as="geometry">
            <mxPoint x="580" y="600" as="targetPoint" />
            <Array as="points">
              <mxPoint x="565" y="575" />
              <mxPoint x="575" y="575" />
            </Array>
          </mxGeometry>
        </mxCell>
        <mxCell id="blKXPEG1kJmycwjb-spy-4" value="" style="image;html=1;image=img/lib/clip_art/networking/Switch_128x128.png" parent="1" vertex="1">
          <mxGeometry x="520" y="470" width="90" height="80" as="geometry" />
        </mxCell>
        <mxCell id="blKXPEG1kJmycwjb-spy-35" style="edgeStyle=orthogonalEdgeStyle;rounded=0;orthogonalLoop=1;jettySize=auto;html=1;exitX=0.25;exitY=1;exitDx=0;exitDy=0;entryX=0.5;entryY=0;entryDx=0;entryDy=0;" parent="1" source="blKXPEG1kJmycwjb-spy-8" target="blKXPEG1kJmycwjb-spy-29" edge="1">
          <mxGeometry relative="1" as="geometry" />
        </mxCell>
        <mxCell id="blKXPEG1kJmycwjb-spy-36" style="edgeStyle=orthogonalEdgeStyle;rounded=0;orthogonalLoop=1;jettySize=auto;html=1;exitX=0.75;exitY=1;exitDx=0;exitDy=0;entryX=0.5;entryY=0;entryDx=0;entryDy=0;" parent="1" source="blKXPEG1kJmycwjb-spy-8" target="blKXPEG1kJmycwjb-spy-4" edge="1">
          <mxGeometry relative="1" as="geometry" />
        </mxCell>
        <mxCell id="blKXPEG1kJmycwjb-spy-8" value="" style="image;html=1;image=img/lib/clip_art/networking/Firewall_02_128x128.png" parent="1" vertex="1">
          <mxGeometry x="360" y="320" width="80" height="80" as="geometry" />
        </mxCell>
        <mxCell id="K5195V57twpSrOtmKXnl-6" style="edgeStyle=orthogonalEdgeStyle;rounded=0;orthogonalLoop=1;jettySize=auto;html=1;exitX=0.55;exitY=0.95;exitDx=0;exitDy=0;exitPerimeter=0;" parent="1" source="blKXPEG1kJmycwjb-spy-10" target="blKXPEG1kJmycwjb-spy-1" edge="1">
          <mxGeometry relative="1" as="geometry" />
        </mxCell>
        <mxCell id="blKXPEG1kJmycwjb-spy-10" value="Internet" style="ellipse;shape=cloud;whiteSpace=wrap;html=1;" parent="1" vertex="1">
          <mxGeometry x="320" y="20" width="150" height="90" as="geometry" />
        </mxCell>
        <mxCell id="blKXPEG1kJmycwjb-spy-17" value="techsolutions.com&lt;div&gt;IP PUBBLICO STATICO&lt;/div&gt;&lt;div&gt;66.249.66.41&lt;/div&gt;&lt;div&gt;da acquistare e associare al dominio in oggetto&lt;/div&gt;&lt;div&gt;&lt;br&gt;&lt;/div&gt;" style="text;html=1;align=center;verticalAlign=middle;whiteSpace=wrap;rounded=0;" parent="1" vertex="1">
          <mxGeometry x="80" y="90" width="170" height="40" as="geometry" />
        </mxCell>
        <mxCell id="blKXPEG1kJmycwjb-spy-18" value="192.168.0.1" style="text;html=1;align=center;verticalAlign=middle;whiteSpace=wrap;rounded=0;" parent="1" vertex="1">
          <mxGeometry x="290" y="380" width="60" height="30" as="geometry" />
        </mxCell>
        <mxCell id="blKXPEG1kJmycwjb-spy-34" style="edgeStyle=orthogonalEdgeStyle;rounded=0;orthogonalLoop=1;jettySize=auto;html=1;exitX=0.55;exitY=0.95;exitDx=0;exitDy=0;exitPerimeter=0;" parent="1" source="blKXPEG1kJmycwjb-spy-19" target="blKXPEG1kJmycwjb-spy-27" edge="1">
          <mxGeometry relative="1" as="geometry" />
        </mxCell>
        <mxCell id="blKXPEG1kJmycwjb-spy-41" style="edgeStyle=orthogonalEdgeStyle;rounded=0;orthogonalLoop=1;jettySize=auto;html=1;exitX=0.13;exitY=0.77;exitDx=0;exitDy=0;exitPerimeter=0;" parent="1" source="blKXPEG1kJmycwjb-spy-19" target="blKXPEG1kJmycwjb-spy-39" edge="1">
          <mxGeometry relative="1" as="geometry" />
        </mxCell>
        <mxCell id="blKXPEG1kJmycwjb-spy-42" style="edgeStyle=orthogonalEdgeStyle;rounded=0;orthogonalLoop=1;jettySize=auto;html=1;exitX=0.31;exitY=0.8;exitDx=0;exitDy=0;exitPerimeter=0;" parent="1" source="blKXPEG1kJmycwjb-spy-19" edge="1">
          <mxGeometry relative="1" as="geometry">
            <mxPoint x="160" y="850" as="targetPoint" />
          </mxGeometry>
        </mxCell>
        <mxCell id="eQBaW7FGiBmgZCPmq8IH-8" style="edgeStyle=orthogonalEdgeStyle;rounded=0;orthogonalLoop=1;jettySize=auto;html=1;exitX=0.25;exitY=0.25;exitDx=0;exitDy=0;exitPerimeter=0;entryX=1;entryY=0.5;entryDx=0;entryDy=0;" parent="1" source="blKXPEG1kJmycwjb-spy-19" target="eQBaW7FGiBmgZCPmq8IH-7" edge="1">
          <mxGeometry relative="1" as="geometry" />
        </mxCell>
        <mxCell id="blKXPEG1kJmycwjb-spy-19" value="LAN 192.168.0.0/24" style="ellipse;shape=cloud;whiteSpace=wrap;html=1;" parent="1" vertex="1">
          <mxGeometry x="160" y="600" width="200" height="140" as="geometry" />
        </mxCell>
        <mxCell id="blKXPEG1kJmycwjb-spy-55" style="edgeStyle=orthogonalEdgeStyle;rounded=0;orthogonalLoop=1;jettySize=auto;html=1;exitX=0.55;exitY=0.95;exitDx=0;exitDy=0;exitPerimeter=0;entryX=0.5;entryY=0;entryDx=0;entryDy=0;" parent="1" source="blKXPEG1kJmycwjb-spy-21" target="blKXPEG1kJmycwjb-spy-53" edge="1">
          <mxGeometry relative="1" as="geometry" />
        </mxCell>
        <mxCell id="blKXPEG1kJmycwjb-spy-21" value="&amp;nbsp;DMZ 192.168.1.0/24" style="ellipse;shape=cloud;whiteSpace=wrap;html=1;" parent="1" vertex="1">
          <mxGeometry x="480" y="600" width="190" height="130" as="geometry" />
        </mxCell>
        <mxCell id="blKXPEG1kJmycwjb-spy-25" value="192.168.1.1" style="text;html=1;align=center;verticalAlign=middle;whiteSpace=wrap;rounded=0;" parent="1" vertex="1">
          <mxGeometry x="450" y="381" width="60" height="30" as="geometry" />
        </mxCell>
        <mxCell id="blKXPEG1kJmycwjb-spy-27" value="" style="fontColor=#0066CC;verticalAlign=top;verticalLabelPosition=bottom;labelPosition=center;align=center;html=1;outlineConnect=0;fillColor=#CCCCCC;strokeColor=#6881B3;gradientColor=none;gradientDirection=north;strokeWidth=2;shape=mxgraph.networks.pc;" parent="1" vertex="1">
          <mxGeometry x="270" y="820" width="100" height="70" as="geometry" />
        </mxCell>
        <mxCell id="blKXPEG1kJmycwjb-spy-38" style="edgeStyle=orthogonalEdgeStyle;rounded=0;orthogonalLoop=1;jettySize=auto;html=1;exitX=0.5;exitY=1;exitDx=0;exitDy=0;" parent="1" source="blKXPEG1kJmycwjb-spy-29" target="blKXPEG1kJmycwjb-spy-19" edge="1">
          <mxGeometry relative="1" as="geometry" />
        </mxCell>
        <mxCell id="blKXPEG1kJmycwjb-spy-29" value="" style="image;html=1;image=img/lib/clip_art/networking/Switch_128x128.png" parent="1" vertex="1">
          <mxGeometry x="240" y="470" width="90" height="80" as="geometry" />
        </mxCell>
        <mxCell id="blKXPEG1kJmycwjb-spy-33" value="192.168.0.10 - 192.168.0.109" style="text;html=1;align=center;verticalAlign=middle;whiteSpace=wrap;rounded=0;" parent="1" vertex="1">
          <mxGeometry x="353" y="920" width="60" height="30" as="geometry" />
        </mxCell>
        <mxCell id="blKXPEG1kJmycwjb-spy-39" value="" style="image;points=[];aspect=fixed;html=1;align=center;shadow=0;dashed=0;image=img/lib/allied_telesis/wireless/Access_Point_Indoor.svg;" parent="1" vertex="1">
          <mxGeometry x="90" y="730" width="36.6" height="54.6" as="geometry" />
        </mxCell>
        <mxCell id="blKXPEG1kJmycwjb-spy-40" value="" style="image;points=[];aspect=fixed;html=1;align=center;shadow=0;dashed=0;image=img/lib/allied_telesis/wireless/Access_Point_Indoor.svg;" parent="1" vertex="1">
          <mxGeometry x="126.6" y="845.4" width="36.6" height="54.6" as="geometry" />
        </mxCell>
        <mxCell id="blKXPEG1kJmycwjb-spy-43" value="AP 01 192.168.0.2&lt;div&gt;SSID Azienda 1&lt;/div&gt;&lt;div&gt;PASSWORD&lt;/div&gt;&lt;div&gt;ciaociao23&lt;/div&gt;" style="text;html=1;align=center;verticalAlign=middle;whiteSpace=wrap;rounded=0;" parent="1" vertex="1">
          <mxGeometry x="20" y="770" width="60" height="30" as="geometry" />
        </mxCell>
        <mxCell id="blKXPEG1kJmycwjb-spy-44" value="AP 02&lt;div&gt;192.168.0.3&lt;br&gt;&lt;div&gt;SSID Azienda 2&lt;/div&gt;&lt;div&gt;PASSWORD&lt;/div&gt;&lt;/div&gt;&lt;div&gt;ciaociao24&lt;/div&gt;" style="text;html=1;align=center;verticalAlign=middle;whiteSpace=wrap;rounded=0;" parent="1" vertex="1">
          <mxGeometry x="49.99999999999999" y="900" width="60" height="30" as="geometry" />
        </mxCell>
        <mxCell id="blKXPEG1kJmycwjb-spy-49" value="&lt;div&gt;&lt;b&gt;CONF ROUTER&lt;/b&gt;&lt;/div&gt;&lt;div&gt;P0 66.249.66.41&lt;/div&gt;&lt;div&gt;P1 192.168.0.1/24&lt;/div&gt;&lt;div&gt;P2 192.168.1.1/24&lt;/div&gt;&lt;div&gt;&lt;b&gt;&lt;br&gt;&lt;/b&gt;&lt;/div&gt;&lt;b&gt;DHCP POOL LAN&lt;/b&gt;&lt;div&gt;RETE 192.168.0.0/24&lt;/div&gt;&lt;div&gt;NETMASK 255.255.255.0&lt;/div&gt;&lt;div&gt;Gateway: 192.168.0.1&lt;/div&gt;&lt;div&gt;DNS 8.8.8.8 8.8.4.4&lt;/div&gt;&lt;div&gt;&lt;br&gt;&lt;/div&gt;&lt;div&gt;&lt;b&gt;NAT DINAMICO LAN&lt;/b&gt;&amp;nbsp;&lt;span style=&quot;background-color: transparent; color: light-dark(rgb(0, 0, 0), rgb(255, 255, 255));&quot;&gt;192.168.0.0/24 = porta P0 =&lt;/span&gt;&lt;/div&gt;&lt;div&gt;66.249.66.41&lt;/div&gt;&lt;div&gt;&lt;br&gt;&lt;/div&gt;&lt;div&gt;&lt;b&gt;NAT STATICO (PORT FORWARDING)&lt;/b&gt;&lt;/div&gt;&lt;div&gt;192.168.1.2:443&lt;/div&gt;&lt;div&gt;&lt;div&gt;66.249.66.41:443 TCP&lt;/div&gt;&lt;div&gt;&lt;br&gt;&lt;/div&gt;&lt;/div&gt;&lt;div&gt;&lt;b&gt;ACL&lt;/b&gt;&amp;nbsp;&lt;/div&gt;&lt;div&gt;PERMIT/DENY TCP/UDP SORGENTE:porta DESTINAZIONE:porta&lt;/div&gt;&lt;div&gt;&lt;br&gt;&lt;/div&gt;&lt;div&gt;PERMIT TCP/UDP 192.168.0.0/24:ANY ANY:ANY&lt;/div&gt;&lt;div&gt;PERMIT TCP/UDP 192.168.1.2:ANY&amp;nbsp;&lt;span style=&quot;background-color: transparent; color: light-dark(rgb(0, 0, 0), rgb(255, 255, 255));&quot;&gt;66.249.66.41&lt;/span&gt;&lt;span style=&quot;background-color: transparent; color: light-dark(rgb(0, 0, 0), rgb(255, 255, 255));&quot;&gt;:ANY&lt;/span&gt;&lt;/div&gt;&lt;div&gt;&lt;b&gt;&lt;span style=&quot;background-color: transparent; color: light-dark(rgb(0, 0, 0), rgb(255, 255, 255));&quot;&gt;PERMIT TCP&amp;nbsp;&lt;/span&gt;&lt;span style=&quot;background-color: transparent; color: light-dark(rgb(0, 0, 0), rgb(255, 255, 255));&quot;&gt;66.249.66.41:443 192.168.1.2:443&lt;/span&gt;&lt;/b&gt;&lt;/div&gt;&lt;div&gt;&lt;span style=&quot;background-color: transparent; color: light-dark(rgb(0, 0, 0), rgb(255, 255, 255));&quot;&gt;DENY TCP ANY ANY&lt;/span&gt;&lt;/div&gt;&lt;div&gt;&lt;br&gt;&lt;/div&gt;&lt;div&gt;&lt;br&gt;&lt;/div&gt;&lt;div&gt;&lt;br&gt;&lt;/div&gt;" style="text;html=1;align=center;verticalAlign=middle;whiteSpace=wrap;rounded=0;" parent="1" vertex="1">
          <mxGeometry x="497" y="60" width="330" height="330" as="geometry" />
        </mxCell>
        <mxCell id="blKXPEG1kJmycwjb-spy-53" value="" style="image;aspect=fixed;perimeter=ellipsePerimeter;html=1;align=center;shadow=0;dashed=0;spacingTop=3;image=img/lib/active_directory/generic_server.svg;" parent="1" vertex="1">
          <mxGeometry x="630" y="760" width="44.8" height="80" as="geometry" />
        </mxCell>
        <mxCell id="blKXPEG1kJmycwjb-spy-54" value="WEB SERVER&lt;div&gt;192.168.1.2/24&lt;/div&gt;" style="text;html=1;align=center;verticalAlign=middle;whiteSpace=wrap;rounded=0;" parent="1" vertex="1">
          <mxGeometry x="690" y="730" width="100" height="53" as="geometry" />
        </mxCell>
        <mxCell id="blKXPEG1kJmycwjb-spy-56" value="443 apache&lt;div&gt;22&lt;/div&gt;&lt;div&gt;ssh&lt;/div&gt;" style="text;html=1;align=center;verticalAlign=middle;whiteSpace=wrap;rounded=0;" parent="1" vertex="1">
          <mxGeometry x="710" y="800" width="60" height="30" as="geometry" />
        </mxCell>
        <mxCell id="blKXPEG1kJmycwjb-spy-58" value="" style="shape=image;html=1;verticalAlign=top;verticalLabelPosition=bottom;labelBackgroundColor=#ffffff;imageAspect=0;aspect=fixed;image=https://cdn1.iconfinder.com/data/icons/unicons-line-vol-3/24/docker-128.png" parent="1" vertex="1">
          <mxGeometry x="570" y="890" width="66" height="66" as="geometry" />
        </mxCell>
        <mxCell id="blKXPEG1kJmycwjb-spy-59" value="" style="shape=image;html=1;verticalAlign=top;verticalLabelPosition=bottom;labelBackgroundColor=#ffffff;imageAspect=0;aspect=fixed;image=https://cdn1.iconfinder.com/data/icons/unicons-line-vol-3/24/docker-128.png" parent="1" vertex="1">
          <mxGeometry x="570" y="956" width="69" height="69" as="geometry" />
        </mxCell>
        <mxCell id="eQBaW7FGiBmgZCPmq8IH-1" style="edgeStyle=orthogonalEdgeStyle;rounded=0;orthogonalLoop=1;jettySize=auto;html=1;exitX=0.75;exitY=1;exitDx=0;exitDy=0;entryX=0.5;entryY=1;entryDx=0;entryDy=0;" parent="1" source="blKXPEG1kJmycwjb-spy-44" target="blKXPEG1kJmycwjb-spy-44" edge="1">
          <mxGeometry relative="1" as="geometry" />
        </mxCell>
        <mxCell id="eQBaW7FGiBmgZCPmq8IH-3" value="Policy level 100" style="text;html=1;align=center;verticalAlign=middle;whiteSpace=wrap;rounded=0;" parent="1" vertex="1">
          <mxGeometry x="163.2" y="470" width="60" height="30" as="geometry" />
        </mxCell>
        <mxCell id="eQBaW7FGiBmgZCPmq8IH-4" value="Policy level 50" style="text;html=1;align=center;verticalAlign=middle;whiteSpace=wrap;rounded=0;" parent="1" vertex="1">
          <mxGeometry x="622.4" y="470" width="60" height="30" as="geometry" />
        </mxCell>
        <mxCell id="eQBaW7FGiBmgZCPmq8IH-5" value="Policy level 0" style="text;html=1;align=center;verticalAlign=middle;whiteSpace=wrap;rounded=0;" parent="1" vertex="1">
          <mxGeometry x="420" y="280" width="60" height="30" as="geometry" />
        </mxCell>
        <mxCell id="eQBaW7FGiBmgZCPmq8IH-6" value="Se usi i policy level al posto delle acl devi aggiungere&lt;div&gt;&lt;b&gt;&lt;span style=&quot;background-color: transparent; color: light-dark(rgb(0, 0, 0), rgb(255, 255, 255));&quot;&gt;PERMIT TCP&amp;nbsp;&lt;/span&gt;&lt;span style=&quot;background-color: transparent; color: light-dark(rgb(0, 0, 0), rgb(255, 255, 255));&quot;&gt;66.249.66.41:443 192.168.1.2:443&lt;/span&gt;&lt;/b&gt;&lt;/div&gt;" style="text;html=1;align=center;verticalAlign=middle;whiteSpace=wrap;rounded=0;" parent="1" vertex="1">
          <mxGeometry x="610" y="545" width="190" height="40" as="geometry" />
        </mxCell>
        <mxCell id="eQBaW7FGiBmgZCPmq8IH-7" value="" style="image;aspect=fixed;perimeter=ellipsePerimeter;html=1;align=center;shadow=0;dashed=0;spacingTop=3;image=img/lib/active_directory/generic_server.svg;" parent="1" vertex="1">
          <mxGeometry x="87.3" y="550" width="42" height="75" as="geometry" />
        </mxCell>
        <mxCell id="eQBaW7FGiBmgZCPmq8IH-9" value="Server VPN&lt;div&gt;fare regola per&amp;nbsp;&lt;/div&gt;&lt;div&gt;la porta usata&lt;/div&gt;" style="text;html=1;align=center;verticalAlign=middle;whiteSpace=wrap;rounded=0;" parent="1" vertex="1">
          <mxGeometry x="11" y="510" width="99" height="51" as="geometry" />
        </mxCell>
        <mxCell id="DQ2LKYy4N0xvc5D1NPD0-1" value="" style="shape=image;html=1;verticalAlign=top;verticalLabelPosition=bottom;labelBackgroundColor=#ffffff;imageAspect=0;aspect=fixed;image=https://cdn1.iconfinder.com/data/icons/unicons-line-vol-3/24/docker-128.png" parent="1" vertex="1">
          <mxGeometry x="570" y="1040" width="77" height="77" as="geometry" />
        </mxCell>
        <mxCell id="DQ2LKYy4N0xvc5D1NPD0-2" value="HTTP FRONT END 172.16.0.1" style="text;html=1;align=center;verticalAlign=middle;whiteSpace=wrap;rounded=0;" parent="1" vertex="1">
          <mxGeometry x="660" y="908" width="60" height="30" as="geometry" />
        </mxCell>
        <mxCell id="DQ2LKYy4N0xvc5D1NPD0-3" style="edgeStyle=orthogonalEdgeStyle;rounded=0;orthogonalLoop=1;jettySize=auto;html=1;exitX=0.5;exitY=0;exitDx=0;exitDy=0;entryX=0.75;entryY=0;entryDx=0;entryDy=0;" parent="1" source="DQ2LKYy4N0xvc5D1NPD0-2" target="DQ2LKYy4N0xvc5D1NPD0-2" edge="1">
          <mxGeometry relative="1" as="geometry" />
        </mxCell>
        <mxCell id="DQ2LKYy4N0xvc5D1NPD0-4" value="&lt;div style=&quot;text-align: center;&quot;&gt;&lt;font color=&quot;#121212&quot;&gt;&lt;span style=&quot;background-color: rgb(211, 213, 214);&quot;&gt;HTTP BACK END 172.16.1.2&lt;/span&gt;&lt;/font&gt;&lt;/div&gt;" style="text;whiteSpace=wrap;html=1;" parent="1" vertex="1">
          <mxGeometry x="660" y="960" width="80" height="30" as="geometry" />
        </mxCell>
        <mxCell id="DQ2LKYy4N0xvc5D1NPD0-5" value="&lt;div style=&quot;text-align: center;&quot;&gt;&lt;font color=&quot;#121212&quot;&gt;&lt;span style=&quot;background-color: rgb(211, 213, 214);&quot;&gt;DBMS 172.16.1.3&amp;nbsp;&lt;/span&gt;&lt;/font&gt;&lt;/div&gt;" style="text;whiteSpace=wrap;html=1;" parent="1" vertex="1">
          <mxGeometry x="670" y="1030" width="60" height="20" as="geometry" />
        </mxCell>
        <mxCell id="DQ2LKYy4N0xvc5D1NPD0-6" value="" style="shape=flexArrow;endArrow=classic;html=1;rounded=0;" parent="1" edge="1">
          <mxGeometry width="50" height="50" relative="1" as="geometry">
            <mxPoint x="620" y="820" as="sourcePoint" />
            <mxPoint x="590" y="880" as="targetPoint" />
          </mxGeometry>
        </mxCell>
        <mxCell id="DQ2LKYy4N0xvc5D1NPD0-7" value="traffico verso 192.168.1.2:443&lt;div&gt;verso&lt;/div&gt;&lt;div&gt;172.16.0.1:443&lt;/div&gt;" style="text;html=1;align=center;verticalAlign=middle;whiteSpace=wrap;rounded=0;" parent="1" vertex="1">
          <mxGeometry x="502" y="820" width="60" height="30" as="geometry" />
        </mxCell>
        <mxCell id="K5195V57twpSrOtmKXnl-2" value="Certificato ssl/tls per https" style="text;html=1;align=center;verticalAlign=middle;whiteSpace=wrap;rounded=0;" parent="1" vertex="1">
          <mxGeometry x="567" y="390" width="190" height="30" as="geometry" />
        </mxCell>
        <mxCell id="K5195V57twpSrOtmKXnl-3" value="3 switch fisici da 48 porte in cascata" style="text;html=1;align=center;verticalAlign=middle;whiteSpace=wrap;rounded=0;" parent="1" vertex="1">
          <mxGeometry x="160" y="411" width="100" height="40" as="geometry" />
        </mxCell>
        <mxCell id="K5195V57twpSrOtmKXnl-8" value="P0" style="text;html=1;align=center;verticalAlign=middle;whiteSpace=wrap;rounded=0;" parent="1" vertex="1">
          <mxGeometry x="390" y="130" width="60" height="30" as="geometry" />
        </mxCell>
      </root>
    </mxGraphModel>
  </diagram>
</mxfile>
